{
	"asset":{
		"generator":"Khronos glTF Blender I/O v3.6.27",
		"version":"2.0"
	},
	"extensionsUsed":[
		"KHR_materials_specular",
		"KHR_materials_ior"
	],
	"scene":0,
	"scenes":[
		{
			"name":"Scene",
			"nodes":[
				0
			]
		}
	],
	"nodes":[
		{
			"mesh":0,
			"name":"base"
		}
	],
	"materials":[
		{
			"doubleSided":true,
			"extensions":{
				"KHR_materials_specular":{
					"specularColorFactor":[
						0,
						0,
						0
					]
				},
				"KHR_materials_ior":{
					"ior":1.4500000476837158
				}
			},
			"name":"Material.002",
			"pbrMetallicRoughness":{
				"baseColorTexture":{
					"index":0
				},
				"metallicFactor":0
			}
		}
	],
	"meshes":[
		{
			"name":"Sphere",
			"primitives":[
				{
					"attributes":{
						"POSITION":0,
						"NORMAL":1,
						"TEXCOORD_0":2
					},
					"indices":3,
					"material":0
				}
			]
		}
	],
	"textures":[
		{
			"sampler":0,
			"source":0
		}
	],
	"images":[
		{
			"bufferView":4,
			"mimeType":"image/jpeg",
			"name":"base_texture"
		}
	],
	"accessors":[
		{
			"bufferView":0,
			"componentType":5126,
			"count":1856,
			"max":[
				0.9238794445991516,
				-0.32487112283706665,
				0.9238792657852173
			],
			"min":[
				-0.9238791465759277,
				-0.4355703890323639,
				-0.9238790273666382
			],
			"type":"VEC3"
		},
		{
			"bufferView":1,
			"componentType":5126,
			"count":1856,
			"type":"VEC3"
		},
		{
			"bufferView":2,
			"componentType":5126,
			"count":1856,
			"type":"VEC2"
		},
		{
			"bufferView":3,
			"componentType":5123,
			"count":2688,
			"type":"SCALAR"
		}
	],
	"bufferViews":[
		{
			"buffer":0,
			"byteLength":22272,
			"byteOffset":0,
			"target":34962
		},
		{
			"buffer":0,
			"byteLength":22272,
			"byteOffset":22272,
			"target":34962
		},
		{
			"buffer":0,
			"byteLength":14848,
			"byteOffset":44544,
			"target":34962
		},
		{
			"buffer":0,
			"byteLength":5376,
			"byteOffset":59392,
			"target":34963
		},
		{
			"buffer":0,
			"byteLength":113185,
			"byteOffset":64768
		}
	],
	"samplers":[
		{
			"magFilter":9729,
			"minFilter":9987
		}
	],
	"buffers":[
		{
			"byteLength":177956,
			"uri":"data:application/octet-stream;base64,"
		}
	]
}
