{
	"asset":{
		"generator":"Khronos glTF Blender I/O v3.6.27",
		"version":"2.0"
	},
	"scene":0,
	"scenes":[
		{
			"name":"Scene",
			"nodes":[
				0
			]
		}
	],
	"nodes":[
		{
			"mesh":0,
			"name":"Bush",
			"rotation":[
				0.12616178393363953,
				-0.91215580701828,
				0.33873629570007324,
				0.19316492974758148
			],
			"translation":[
				-0.3635636568069458,
				-0.06535512208938599,
				0.3358146548271179
			]
		}
	],
	"materials":[
		{
			"doubleSided":true,
			"name":"BushMat",
			"pbrMetallicRoughness":{
				"baseColorFactor":[
					0.31398871541023254,
					0.11697055399417877,
					0.0497065968811512,
					1
				],
				"metallicFactor":0,
				"roughnessFactor":0.5
			}
		}
	],
	"meshes":[
		{
			"name":"Cube.009",
			"primitives":[
				{
					"attributes":{
						"POSITION":0,
						"NORMAL":1,
						"TEXCOORD_0":2
					},
					"indices":3,
					"material":0
				}
			]
		}
	],
	"accessors":[
		{
			"bufferView":0,
			"componentType":5126,
			"count":4575,
			"max":[
				0.8325880169868469,
				3.39762544631958,
				0.6882480382919312
			],
			"min":[
				-2.1916556358337402,
				-1.0409533977508545,
				-3.8871240615844727
			],
			"type":"VEC3"
		},
		{
			"bufferView":1,
			"componentType":5126,
			"count":4575,
			"type":"VEC3"
		},
		{
			"bufferView":2,
			"componentType":5126,
			"count":4575,
			"type":"VEC2"
		},
		{
			"bufferView":3,
			"componentType":5123,
			"count":9996,
			"type":"SCALAR"
		}
	],
	"bufferViews":[
		{
			"buffer":0,
			"byteLength":54900,
			"byteOffset":0,
			"target":34962
		},
		{
			"buffer":0,
			"byteLength":54900,
			"byteOffset":54900,
			"target":34962
		},
		{
			"buffer":0,
			"byteLength":36600,
			"byteOffset":109800,
			"target":34962
		},
		{
			"buffer":0,
			"byteLength":19992,
			"byteOffset":146400,
			"target":34963
		}
	],
	"buffers":[
		{
			"byteLength":166392,
			"uri":"data:application/octet-stream;base64,"
		}
	]
}
