{
	"asset":{
		"generator":"Khronos glTF Blender I/O v3.6.27",
		"version":"2.0"
	},
	"scene":0,
	"scenes":[
		{
			"name":"Scene",
			"nodes":[
				0
			]
		}
	],
	"nodes":[
		{
			"mesh":0,
			"name":"bush"
		}
	],
	"materials":[
		{
			"doubleSided":true,
			"name":"BushMat",
			"pbrMetallicRoughness":{
				"baseColorFactor":[
					0.31398871541023254,
					0.11697055399417877,
					0.0497065968811512,
					1
				],
				"metallicFactor":0,
				"roughnessFactor":0.5
			}
		}
	],
	"meshes":[
		{
			"name":"Cube.009",
			"primitives":[
				{
					"attributes":{
						"POSITION":0,
						"NORMAL":1,
						"TEXCOORD_0":2
					},
					"indices":3,
					"material":0
				}
			]
		}
	],
	"accessors":[
		{
			"bufferView":0,
			"componentType":5126,
			"count":4515,
			"max":[
				1.2541736364364624,
				5.0411577224731445,
				1.6618876457214355
			],
			"min":[
				-1.77006995677948,
				-0.3810277581214905,
				-1.7037062644958496
			],
			"type":"VEC3"
		},
		{
			"bufferView":1,
			"componentType":5126,
			"count":4515,
			"type":"VEC3"
		},
		{
			"bufferView":2,
			"componentType":5126,
			"count":4515,
			"type":"VEC2"
		},
		{
			"bufferView":3,
			"componentType":5123,
			"count":9996,
			"type":"SCALAR"
		}
	],
	"bufferViews":[
		{
			"buffer":0,
			"byteLength":54180,
			"byteOffset":0,
			"target":34962
		},
		{
			"buffer":0,
			"byteLength":54180,
			"byteOffset":54180,
			"target":34962
		},
		{
			"buffer":0,
			"byteLength":36120,
			"byteOffset":108360,
			"target":34962
		},
		{
			"buffer":0,
			"byteLength":19992,
			"byteOffset":144480,
			"target":34963
		}
	],
	"buffers":[
		{
			"byteLength":164472,
			"uri":"data:application/octet-stream;base64,"
		}
	]
}
