{
	"asset":{
		"generator":"Khronos glTF Blender I/O v3.6.27",
		"version":"2.0"
	},
	"scene":0,
	"scenes":[
		{
			"name":"Scene",
			"nodes":[
				0,
				1
			]
		}
	],
	"nodes":[
		{
			"mesh":0,
			"name":"tree_leaves"
		},
		{
			"mesh":1,
			"name":"tree_base"
		}
	],
	"materials":[
		{
			"doubleSided":true,
			"name":"Material.002",
			"pbrMetallicRoughness":{
				"baseColorFactor":[
					0.09780684858560562,
					0.05087784677743912,
					0.0037337318062782288,
					1
				],
				"metallicFactor":0,
				"roughnessFactor":0.5454545021057129
			}
		},
		{
			"doubleSided":true,
			"name":"Material",
			"pbrMetallicRoughness":{
				"baseColorTexture":{
					"index":0
				},
				"metallicFactor":0,
				"roughnessFactor":0.5
			}
		}
	],
	"meshes":[
		{
			"name":"Cylinder.014",
			"primitives":[
				{
					"attributes":{
						"POSITION":0,
						"NORMAL":1,
						"TEXCOORD_0":2
					},
					"indices":3,
					"material":0
				}
			]
		},
		{
			"name":"Cylinder.019",
			"primitives":[
				{
					"attributes":{
						"POSITION":4,
						"NORMAL":5,
						"TEXCOORD_0":6
					},
					"indices":7,
					"material":1
				}
			]
		}
	],
	"textures":[
		{
			"sampler":0,
			"source":0
		}
	],
	"images":[
		{
			"bufferView":8,
			"mimeType":"image/png",
			"name":"tree_diff"
		}
	],
	"accessors":[
		{
			"bufferView":0,
			"componentType":5126,
			"count":36,
			"max":[
				0.4770193099975586,
				1.8374848365783691,
				0.5508144497871399
			],
			"min":[
				-0.4770193099975586,
				-0.0513538122177124,
				-0.5508144497871399
			],
			"type":"VEC3"
		},
		{
			"bufferView":1,
			"componentType":5126,
			"count":36,
			"type":"VEC3"
		},
		{
			"bufferView":2,
			"componentType":5126,
			"count":36,
			"type":"VEC2"
		},
		{
			"bufferView":3,
			"componentType":5123,
			"count":60,
			"type":"SCALAR"
		},
		{
			"bufferView":4,
			"componentType":5126,
			"count":634,
			"max":[
				1.9030603170394897,
				6.143725872039795,
				2.143454074859619
			],
			"min":[
				-1.9481830596923828,
				1.4972951412200928,
				-2.2766060829162598
			],
			"type":"VEC3"
		},
		{
			"bufferView":5,
			"componentType":5126,
			"count":634,
			"type":"VEC3"
		},
		{
			"bufferView":6,
			"componentType":5126,
			"count":634,
			"type":"VEC2"
		},
		{
			"bufferView":7,
			"componentType":5123,
			"count":1068,
			"type":"SCALAR"
		}
	],
	"bufferViews":[
		{
			"buffer":0,
			"byteLength":432,
			"byteOffset":0,
			"target":34962
		},
		{
			"buffer":0,
			"byteLength":432,
			"byteOffset":432,
			"target":34962
		},
		{
			"buffer":0,
			"byteLength":288,
			"byteOffset":864,
			"target":34962
		},
		{
			"buffer":0,
			"byteLength":120,
			"byteOffset":1152,
			"target":34963
		},
		{
			"buffer":0,
			"byteLength":7608,
			"byteOffset":1272,
			"target":34962
		},
		{
			"buffer":0,
			"byteLength":7608,
			"byteOffset":8880,
			"target":34962
		},
		{
			"buffer":0,
			"byteLength":5072,
			"byteOffset":16488,
			"target":34962
		},
		{
			"buffer":0,
			"byteLength":2136,
			"byteOffset":21560,
			"target":34963
		},
		{
			"buffer":0,
			"byteLength":805785,
			"byteOffset":23696
		}
	],
	"samplers":[
		{
			"magFilter":9729,
			"minFilter":9987
		}
	],
	"buffers":[
		{
			"byteLength":829484,
			"uri":"data:application/octet-stream;base64,"
		}
	]
}
